<svg width="40" height="41" viewBox="0 0 40 41" fill="none" xmlns="http://www.w3.org/2000/svg">
<path d="M9.83398 26.7078L15.82 18.9298L22.648 24.2898L28.506 16.7298" stroke="#00FFFF" stroke-opacity="0.4" stroke-width="1.5" stroke-linecap="round" stroke-linejoin="round"/>
<path fill-rule="evenodd" clip-rule="evenodd" d="M35.3342 1.70001C37.4582 1.70001 39.1782 3.42001 39.1782 5.54401C39.1782 7.66601 37.4582 9.38801 35.3342 9.38801C33.2102 9.38801 31.4902 7.66601 31.4902 5.54401C31.4902 3.42001 33.2102 1.70001 35.3342 1.70001Z" stroke="#00FFFF" stroke-opacity="0.4" stroke-width="1.5" stroke-linecap="round" stroke-linejoin="round"/>
<path d="M37.5109 15.538C37.7769 17.328 37.8989 19.344 37.8989 21.606C37.8989 35.482 33.2749 40.106 19.3989 40.106C5.52493 40.106 0.898926 35.482 0.898926 21.606C0.898926 7.73202 5.52493 3.10602 19.3989 3.10602C21.6189 3.10602 23.6009 3.22402 25.3649 3.48002" stroke="#00FFFF" stroke-opacity="0.4" stroke-width="1.5" stroke-linecap="round" stroke-linejoin="round"/>
</svg>
